<?xml version="1.0" standalone="no"?>
<!DOCTYPE svg PUBLIC "-//W3C//DTD SVG 20010904//EN"
 "http://www.w3.org/TR/2001/REC-SVG-20010904/DTD/svg10.dtd">
<svg version="1.0" xmlns="http://www.w3.org/2000/svg"
 width="202.000000pt" height="198.000000pt" viewBox="0 0 202.000000 198.000000"
 preserveAspectRatio="xMidYMid meet">

<g transform="translate(0.000000,198.000000) scale(0.100000,-0.100000)"
fill="#000000" stroke="none">
<path d="M620 1820 l0 -80 -240 0 -240 0 0 -160 0 -160 80 0 80 0 0 -565 0
-565 80 0 80 0 0 645 0 645 565 0 565 0 0 -645 0 -645 80 0 80 0 0 565 0 565
80 0 80 0 0 160 0 160 -240 0 -240 0 0 80 0 80 -405 0 -405 0 0 -80z"/>
<path d="M622 853 l3 -398 78 -3 77 -3 0 401 0 400 -80 0 -80 0 2 -397z"/>
<path d="M950 850 l0 -400 75 0 75 0 0 400 0 400 -75 0 -75 0 0 -400z"/>
<path d="M1270 850 l0 -401 78 3 77 3 3 398 2 397 -80 0 -80 0 0 -400z"/>
<path d="M467 283 c-4 -3 -7 -39 -7 -80 l0 -73 565 0 566 0 -3 78 -3 77 -556
3 c-305 1 -559 -1 -562 -5z"/>
</g>
</svg>
